<!-- icon666.com - MILLIONS vector ICONS FREE --><svg enable-background="new 0 0 512 512" viewBox="0 0 512 512" xmlns="http://www.w3.org/2000/svg"><g id="_x33_5"><g id="XMLID_2127_"><path id="XMLID_2191_" d="m256 131c82.57 0 159.09 45.32 221.94 122.5-62.85 77.18-139.37 122.5-221.94 122.5s-159.09-45.32-221.94-122.5c14.87-18.26 30.49-34.72 46.78-49.23 6.16 2.72 12.99 4.23 20.16 4.23 27.62 0 50-22.39 50-50 0-.71-.03-1.43-.1-2.18 33.42-16.49 68.67-25.32 105.1-25.32z" fill="#3f4751"></path><path id="XMLID_1227_" d="m426 68.5c13.81 0 25 11.19 25 25s-11.19 25-25 25-25-11.19-25-25 11.19-25 25-25z" fill="#a9d4d8"></path><circle id="XMLID_1226_" cx="91" cy="418.5" fill="#a9d4d8" r="35"></circle><path id="XMLID_2187_" d="m256 168.5c46.95 0 85 38.06 85 85s-38.05 85-85 85c-46.94 0-85-38.06-85-85s38.06-85 85-85z" fill="#deecf1"></path><path id="XMLID_1224_" d="m256 263.5c11.05 0 20 8.95 20 20s-8.95 20-20 20-20-8.95-20-20 8.95-20 20-20z" fill="#94d4ff"></path><path id="XMLID_1223_" d="m256 203.5c27.62 0 50 22.39 50 50s-22.38 50-50 50c11.05 0 20-8.95 20-20s-8.95-20-20-20-20 8.95-20 20 8.95 20 20 20c-27.61 0-50-22.39-50-50s22.39-50 50-50z" fill="#bce4ff"></path><circle id="XMLID_1222_" cx="461" cy="161" r="7.5"></circle><circle id="XMLID_1221_" cx="443.5" cy="356" r="7.5"></circle><circle id="XMLID_1220_" cx="353.5" cy="441" r="7.5"></circle><circle id="XMLID_1219_" cx="338.5" cy="61" r="7.5"></circle><circle id="XMLID_1218_" cx="198.5" cy="411" r="7.5"></circle><circle id="XMLID_1217_" cx="188.5" cy="91" r="7.5"></circle><path id="XMLID_1216_" d="m80.84 204.27c-17.57-7.75-29.84-25.33-29.84-45.77 0-27.61 50-85 50-85s47.47 54.49 49.9 82.82c.07.75.1 1.47.1 2.18 0 27.61-22.38 50-50 50-7.17 0-14-1.51-20.16-4.23z" fill="#5cbeff"></path><circle id="XMLID_1215_" cx="53.5" cy="331" r="7.5"></circle><circle id="XMLID_1214_" cx="43.5" cy="61" r="7.5"></circle><path id="XMLID_2170_" d="m256 343.5c-49.626 0-90-40.374-90-90s40.374-90 90-90 90 40.374 90 90-40.374 90-90 90zm0-170c-44.112 0-80 35.888-80 80s35.888 80 80 80 80-35.888 80-80-35.888-80-80-80z"></path><path id="XMLID_2167_" d="m256 308.5c-30.327 0-55-24.673-55-55s24.673-55 55-55 55 24.673 55 55-24.673 55-55 55zm0-100c-24.813 0-45 20.187-45 45 0 24.814 20.187 45 45 45s45-20.186 45-45c0-24.813-20.187-45-45-45z"></path><path id="XMLID_2164_" d="m256 308.5c-13.785 0-25-11.215-25-25s11.215-25 25-25 25 11.215 25 25-11.215 25-25 25zm0-40c-8.271 0-15 6.728-15 15s6.729 15 15 15 15-6.728 15-15-6.729-15-15-15z"></path><path id="XMLID_1207_" d="m256 381c-81.488 0-159.574-42.997-225.817-124.343-1.498-1.839-1.498-4.476 0-6.314 15.036-18.463 30.949-35.211 47.297-49.775 1.923-1.749 4.902-1.743 6.813.077 2 1.905 2.082 5.064.177 7.064l-.01.01c-.094.099-.193.194-.295.286-15.027 13.385-29.693 28.677-43.634 45.495 63.709 76.889 138.143 117.5 215.469 117.5 77.327 0 151.761-40.612 215.469-117.5-63.708-76.888-138.142-117.5-215.469-117.5-34.914 0-69.531 8.345-102.888 24.804-2.478 1.221-5.474.204-6.696-2.271-1.222-2.477-.205-5.475 2.271-6.696 34.746-17.145 70.851-25.837 107.313-25.837 81.489 0 159.575 42.997 225.817 124.343 1.497 1.839 1.497 4.476 0 6.314-66.242 81.346-144.328 124.343-225.817 124.343z"></path><path id="XMLID_2160_" d="m101 213.5c-7.721 0-15.184-1.566-22.18-4.656-19.936-8.794-32.82-28.555-32.82-50.344 0-29.148 49.138-85.883 51.23-88.285.95-1.09 2.325-1.715 3.77-1.715 1.446 0 2.82.626 3.77 1.716 1.982 2.275 48.572 56.062 51.112 85.677.078.836.118 1.702.118 2.607 0 30.327-24.673 55-55 55zm0-132.285c-15.369 18.419-45 57.929-45 77.285 0 17.829 10.542 33.999 26.858 41.195 5.717 2.525 11.82 3.805 18.142 3.805 24.813 0 45-20.187 45-45 0-.591-.025-1.152-.078-1.713-1.72-20.055-30.182-57.895-44.922-75.572z"></path><path id="XMLID_2143_" d="m426 123.5c-16.542 0-30-13.458-30-30s13.458-30 30-30 30 13.458 30 30-13.458 30-30 30zm0-50c-11.028 0-20 8.972-20 20s8.972 20 20 20 20-8.972 20-20-8.972-20-20-20z"></path><path id="XMLID_2130_" d="m91 458.5c-22.056 0-40-17.944-40-40s17.944-40 40-40 40 17.944 40 40-17.944 40-40 40zm0-70c-16.542 0-30 13.458-30 30s13.458 30 30 30 30-13.458 30-30-13.458-30-30-30z"></path></g></g></svg>